<svg width="12" height="12" viewBox="0 0 12 12" fill="none" xmlns="http://www.w3.org/2000/svg">
<g id="Icon/outline/suggested/c-info">
<g id="Vector">
<path fill-rule="evenodd" clip-rule="evenodd" d="M6 1.83333C3.69881 1.83333 1.83333 3.69881 1.83333 6C1.83333 8.30119 3.69881 10.1667 6 10.1667C8.30119 10.1667 10.1667 8.30119 10.1667 6C10.1667 3.69881 8.30119 1.83333 6 1.83333ZM1 6C1 3.23858 3.23858 1 6 1C8.76142 1 11 3.23858 11 6C11 8.76142 8.76142 11 6 11C3.23858 11 1 8.76142 1 6Z" fill="#366AE2"/>
<path fill-rule="evenodd" clip-rule="evenodd" d="M6 5.16667C6.23012 5.16667 6.41667 5.35321 6.41667 5.58333V8.08333C6.41667 8.31345 6.23012 8.5 6 8.5C5.76988 8.5 5.58333 8.31345 5.58333 8.08333V5.58333C5.58333 5.35321 5.76988 5.16667 6 5.16667Z" fill="#366AE2"/>
<path d="M6 4.33333C6.23012 4.33333 6.41667 4.14679 6.41667 3.91667C6.41667 3.68655 6.23012 3.5 6 3.5C5.76988 3.5 5.58333 3.68655 5.58333 3.91667C5.58333 4.14679 5.76988 4.33333 6 4.33333Z" fill="#366AE2"/>
</g>
</g>
</svg>
