<?xml version="1.0" encoding="utf-8"?>
<!-- Generator: Adobe Illustrator 28.1.0, SVG Export Plug-In . SVG Version: 6.00 Build 0)  -->
<svg version="1.1" id="Layer_1" xmlns="http://www.w3.org/2000/svg" xmlns:xlink="http://www.w3.org/1999/xlink" x="0px" y="0px"
	 viewBox="0 0 800 400" style="enable-background:new 0 0 800 400;" xml:space="preserve">
<style type="text/css">
	.st0{fill:#FFFFFF;}
	.st1{fill:#F36F21;}
	.st2{fill:#0066B3;}
	.st3{fill:#0DB14B;}
</style>
<g>
	<g>
		<path class="st1" d="M365.07,72.75h70.67l-49.12,212.77c-5.64,24.42-27.39,41.72-52.46,41.72h-70.67l49.12-212.77
			C318.25,90.06,340,72.75,365.07,72.75"/>
		<path class="st2" d="M144,288.09h70.64c25.07,0,46.82-17.3,52.46-41.72l31.04-134.46H227.5c-25.07,0-46.82,17.3-52.46,41.72
			L144,288.09z"/>
		<path class="st3" d="M400.95,288.09h70.64c25.07,0,46.82-17.3,52.46-41.72l31.04-134.46h-70.64c-25.07,0-46.82,17.3-52.46,41.72
			L400.95,288.09z"/>
		<path class="st0" d="M188.86,175.25l-15.88,68.8c11.47,0,21.41-7.91,23.99-19.09l3.5-15.17h31.38c11.76,0,21.97-8.12,24.61-19.58
			h-51.47l3.39-14.68h43.13c11.76,0,21.96-8.12,24.61-19.58h-63.01C201.52,155.95,191.47,163.95,188.86,175.25"/>
		<path class="st0" d="M398.49,173.94c2.12-9.2-4.87-17.99-14.31-17.99h-63.33l-20.34,88.09c11.51,0,21.51-7.95,24.1-19.17
			l3.49-15.09H371c11.25,0,21.01-7.76,23.54-18.72L398.49,173.94z M375.02,190.21h-42.41l3.39-14.68h42.41L375.02,190.21z"/>
		<path class="st0" d="M511.71,155.95h-66.46l-0.36,1.57c-2.13,9.22,4.87,18.02,14.33,18.02h14.05l-15.82,68.51h0.98
			c11.04,0,20.61-7.62,23.09-18.37l11.58-50.14h32.41l0.4-1.72C528.03,164.68,521.09,155.95,511.71,155.95"/>
	</g>
	<g>
		<g>
			<g>
				<g>
					<path class="st2" d="M550.25,258.69c-8.11,0-14.68,6.57-14.68,14.68c0,8.11,6.57,14.68,14.68,14.68s14.68-6.57,14.68-14.68
						C564.93,265.26,558.36,258.69,550.25,258.69 M550.25,284.38c-6.08,0-11.01-4.93-11.01-11.01c0-6.08,4.93-11.01,11.01-11.01
						c6.08,0,11.01,4.93,11.01,11.01C561.26,279.45,556.33,284.38,550.25,284.38"/>
				</g>
			</g>
		</g>
		<g>
			<g>
				<g>
					<path class="st2" d="M550.81,275.34h-2.41v5.37h-3.03v-14.68h5.46c1.73,0,3.07,0.39,4.01,1.16c0.94,0.77,1.41,1.87,1.41,3.28
						c0,1-0.22,1.84-0.65,2.51c-0.43,0.67-1.09,1.2-1.97,1.6l3.18,6v0.14h-3.25L550.81,275.34z M548.4,272.89h2.44
						c0.76,0,1.35-0.19,1.76-0.58c0.42-0.39,0.62-0.92,0.62-1.6c0-0.69-0.19-1.24-0.59-1.63c-0.39-0.4-1-0.59-1.81-0.59h-2.43
						V272.89z"/>
				</g>
			</g>
		</g>
	</g>
	<g>
		<path class="st2" d="M600.3,243.27v-66.65h10.4v66.65H600.3z"/>
		<path class="st2" d="M649.92,238.94c-4.11,3.56-9.61,5.34-16.48,5.34c-6.69,0-12.21-1.16-16.57-3.5l3.59-9.02
			c3.93,2.15,8.13,3.22,12.61,3.22c3.74,0,6.72-0.89,8.93-2.67c2.27-1.78,3.41-4.2,3.41-7.27c0-4.17-3.56-7.82-10.68-10.96
			c-5.28-2.39-9.11-4.72-11.51-7c-3.74-3.44-5.62-7.67-5.62-12.7c0-5.71,1.93-10.28,5.8-13.72c3.8-3.37,8.9-5.06,15.28-5.06
			c6.14,0,11.14,1.17,15.01,3.5l-3.31,8.47c-3.62-2.03-7.4-3.04-11.32-3.04c-3.31,0-5.98,0.83-8.01,2.49
			c-2.03,1.66-3.04,3.93-3.04,6.81c0,4.05,3.74,7.8,11.23,11.23c5.22,2.39,8.96,4.66,11.23,6.81c3.68,3.44,5.52,7.67,5.52,12.7
			C656,230.6,653.97,235.38,649.92,238.94z"/>
	</g>
</g>
</svg>
